<?xml version="1.0" encoding="utf-8"?>
<!-- Generator: Adobe Illustrator 22.0.1, SVG Export Plug-In . SVG Version: 6.00 Build 0)  -->
<svg version="1.1"
	 id="svg2" xmlns:cc="http://creativecommons.org/ns#" xmlns:dc="http://purl.org/dc/elements/1.1/" xmlns:rdf="http://www.w3.org/1999/02/22-rdf-syntax-ns#" xmlns:svg="http://www.w3.org/2000/svg"
	 xmlns="http://www.w3.org/2000/svg" xmlns:xlink="http://www.w3.org/1999/xlink" x="0px" y="0px" viewBox="0 0 257.7 407.1"
	 style="enable-background:new 0 0 257.7 407.1;" xml:space="preserve">
<style type="text/css">
	.st0{clip-path:url(#SVGID_2_);}
	.st1{fill:#222222;}
	.st2{fill:#4793A4;}
	.st3{fill:#FABD31;}
</style>
<g id="g10" transform="matrix(1.3333333,0,0,-1.3333333,0,755.90533)">
	<g id="g12">
		<g>
			<defs>
				<rect id="SVGID_1_" x="-281.4" y="34.3" width="755.9" height="755.9"/>
			</defs>
			<clipPath id="SVGID_2_">
				<use xlink:href="#SVGID_1_"  style="overflow:visible;"/>
			</clipPath>
			<g id="g14" class="st0">
				<g id="g20" transform="translate(202.8306,157.7891)">
					<path id="path22" class="st1" d="M-186.9,128.8c-1.3-0.4-3.6-1-6-1c-3.3,0-5.7,0.8-7.3,2.4c-1.6,1.6-2.5,3.9-2.5,6.6
						c0,6,4.4,9.4,10.3,9.4c2.3,0,4.1-0.5,5-0.9l-0.9-3.3c-1,0.5-2.2,0.8-4.2,0.8c-3.4,0-6-1.9-6-5.8c0-3.8,2.4-5.9,5.7-5.9
						c0.9,0,1.7,0.1,2,0.2v3.8h-2.8v3.2h6.7V128.8z"/>
				</g>
				<g id="g24" transform="translate(214.8657,165.9658)">
					<path id="path26" class="st1" d="M-186.9,128.8c0-3.6,1.7-6.1,4.4-6.1c2.8,0,4.3,2.6,4.3,6.1c0,3.3-1.5,6.1-4.3,6.1
						C-185.3,135-186.9,132.3-186.9,128.8 M-173.8,129c0-6-3.6-9.5-8.9-9.5c-5.3,0-8.5,4-8.5,9.2c0,5.4,3.5,9.5,8.8,9.5
						C-176.8,138.2-173.8,134-173.8,129"/>
				</g>
				<g id="g28" transform="translate(239.4478,165.9658)">
					<path id="path30" class="st1" d="M-186.9,128.8c0-3.6,1.7-6.1,4.4-6.1c2.8,0,4.3,2.6,4.3,6.1c0,3.3-1.5,6.1-4.3,6.1
						C-185.3,135-186.9,132.3-186.9,128.8 M-173.8,129c0-6-3.6-9.5-8.9-9.5c-5.3,0-8.5,4-8.5,9.2c0,5.4,3.5,9.5,8.8,9.5
						C-176.8,138.2-173.8,134-173.8,129"/>
				</g>
				<g id="g32" transform="translate(264.6187,160.041)">
					<path id="path34" class="st1" d="M-186.9,128.8c0.3-0.1,0.9-0.1,1.4-0.1c3.7,0,6.2,2,6.2,6.3c0,3.8-2.2,5.7-5.7,5.7
						c-0.9,0-1.5-0.1-1.9-0.2V128.8z M-190.9,143.5c1.5,0.2,3.5,0.4,5.5,0.4c3.5,0,5.7-0.6,7.4-1.9c1.9-1.4,3.1-3.6,3.1-6.8
						c0-3.5-1.3-5.8-3-7.3c-1.9-1.6-4.8-2.3-8.4-2.3c-2.1,0-3.6,0.1-4.6,0.3V143.5z"/>
				</g>
				<g id="g36" transform="translate(287.7534,156.958)">
					<path id="path38" class="st1" d="M-186.9,128.8v7.4l-5.7,10.7h4.7l1.8-4.3c0.6-1.3,1-2.3,1.4-3.5h0.1c0.4,1.1,0.8,2.2,1.4,3.5
						l1.8,4.3h4.6l-6-10.5v-7.5H-186.9z"/>
				</g>
				<g id="g40" transform="translate(304.6421,175.0273)">
					<path id="path42" class="st1" d="M-186.9,128.8h4.1v-14.6h7.2v-3.4h-11.3V128.8z"/>
				</g>
				<g id="g44" transform="translate(332.6284,164.6523)">
					<path id="path46" class="st1" d="M-186.9,128.8l-1.1,3.8c-0.3,1.1-0.6,2.4-0.9,3.5h-0.1c-0.3-1.1-0.5-2.4-0.8-3.5l-1.1-3.8
						H-186.9z M-191.5,125.8l-1.3-4.6h-4.2l5.5,18.1h5.4l5.6-18.1h-4.4l-1.4,4.6H-191.5z"/>
				</g>
				<g id="g48" transform="translate(350.8296,159.8535)">
					<path id="path50" class="st1" d="M-186.9,128.8c0.4-0.1,0.9-0.1,1.6-0.1c1.9,0,3.5,0.7,3.5,2.6c0,1.8-1.6,2.5-3.7,2.5h-1.4
						V128.8z M-186.9,136.8h1.3c2.2,0,3.3,0.9,3.3,2.2c0,1.4-1,2.1-2.9,2.1c-0.9,0-1.4-0.1-1.7-0.1V136.8z M-190.9,143.8
						c1.1,0.2,3.2,0.4,5.3,0.4c2.5,0,4-0.2,5.4-1c1.3-0.7,2.1-1.9,2.1-3.6c0-1.6-0.9-3.1-3-3.8v-0.1c2.1-0.5,3.6-2.1,3.6-4.4
						c0-1.7-0.8-2.9-1.9-3.9c-1.3-1-3.5-1.6-7.1-1.6c-2,0-3.5,0.1-4.4,0.3V143.8z"/>
				</g>
				<g id="g52" transform="translate(368.4673,161.167)">
					<path id="path54" class="st1" d="M-186.9,128.8c1.1-0.6,2.8-1.1,4.5-1.1c1.9,0,2.9,0.8,2.9,2c0,1.1-0.9,1.8-3,2.5
						c-3,1.1-5,2.7-5,5.4c0,3.1,2.6,5.4,6.8,5.4c2.1,0,3.5-0.4,4.6-0.9l-0.9-3.3c-0.7,0.3-2,0.9-3.8,0.9c-1.8,0-2.6-0.8-2.6-1.7
						c0-1.2,1-1.7,3.4-2.5c3.2-1.2,4.7-2.8,4.7-5.4c0-3-2.3-5.6-7.3-5.6c-2.1,0-4.1,0.6-5.1,1.1L-186.9,128.8z"/>
				</g>
				<path id="path56" class="st1" d="M45,261.7h-1.4v10.5H45V261.7z"/>
				<g id="g58" transform="translate(239.3315,142.2363)">
					<path id="path60" class="st1" d="M-186.9,128.8h-3.2v1.1h7.8v-1.1h-3.2v-9.3h-1.4V128.8z"/>
				</g>
				<g id="g62" transform="translate(262.5483,133.3818)">
					<path id="path64" class="st1" d="M-186.9,128.8c-0.6-0.2-1.8-0.6-3.2-0.6c-1.6,0-2.9,0.4-3.9,1.4c-0.9,0.9-1.5,2.3-1.5,3.9
						c0,3.1,2.2,5.4,5.7,5.4c1.2,0,2.2-0.3,2.6-0.5l-0.3-1.1c-0.6,0.3-1.3,0.5-2.3,0.5c-2.5,0-4.2-1.6-4.2-4.2c0-2.7,1.6-4.2,4-4.2
						c0.9,0,1.5,0.1,1.8,0.3v3.1h-2.1v1.1h3.4V128.8z"/>
				</g>
				<g id="g66" transform="translate(268.5093,138.1035)">
					<path id="path68" class="st1" d="M-186.9,128.8c0-2.3,1.2-4.3,3.4-4.3c2.1,0,3.4,2,3.4,4.3c0,2.1-1.1,4.3-3.3,4.3
						S-186.9,131.1-186.9,128.8 M-178.7,129c0-3.6-2.2-5.5-4.9-5.5c-2.8,0-4.7,2.2-4.7,5.3c0,3.3,2.1,5.5,4.8,5.5
						C-180.6,134.3-178.7,132.1-178.7,129"/>
				</g>
				<g id="g70" transform="translate(289.2563,143.3857)">
					<path id="path72" class="st1" d="M-186.9,128.8v-4.4h5.1v4.4h1.4v-10.5h-1.4v4.9h-5.1v-4.9h-1.4v10.5H-186.9z"/>
				</g>
				<g id="g74" transform="translate(301.9429,138.1035)">
					<path id="path76" class="st1" d="M-186.9,128.8c0-2.3,1.2-4.3,3.4-4.3c2.1,0,3.4,2,3.4,4.3c0,2.1-1.1,4.3-3.3,4.3
						C-185.8,133.2-186.9,131.1-186.9,128.8 M-178.7,129c0-3.6-2.2-5.5-4.9-5.5c-2.8,0-4.7,2.2-4.7,5.3c0,3.3,2.1,5.5,4.8,5.5
						C-180.6,134.3-178.7,132.1-178.7,129"/>
				</g>
				<g id="g78" transform="translate(323.7632,137.5137)">
					<path id="path80" class="st1" d="M-186.9,128.8c-0.1,1.5-0.2,3.2-0.2,4.5h0c-0.4-1.2-0.8-2.5-1.3-4l-1.8-5.1h-1l-1.7,5
						c-0.5,1.5-0.9,2.8-1.2,4.1h0c0-1.3-0.1-3-0.2-4.6l-0.3-4.5h-1.3l0.7,10.5h1.7l1.8-5.1c0.4-1.3,0.8-2.4,1.1-3.5h0
						c0.3,1.1,0.7,2.2,1.1,3.5l1.9,5.1h1.7l0.7-10.5h-1.3L-186.9,128.8z"/>
				</g>
				<g id="g82" transform="translate(335.937,137.8242)">
					<path id="path84" class="st1" d="M-186.9,128.8h-4.1V125h4.5v-1.1h-5.9v10.5h5.7v-1.1h-4.3v-3.3h4.1V128.8z"/>
				</g>
				<g id="g86" transform="translate(286.6167,263.7891)">
					<path id="path88" class="st2" d="M-186.9,128.8h27c-1.3-2-2.9-3.8-4.7-5.6c-6.8-6.8-15.1-10.1-24.8-10.1c-9.7,0-18,3.4-25,10.1
						c-6.8,7-10.1,15.3-10.1,25c0,9.7,3.4,18,10.1,24.8c7,7,15.3,10.4,25,10.4c4.5,0,8.3-0.4,11.8-1.6l-26.9,49.1
						c-16.7-2.9-31.4-10.8-44.1-23.5c-16.4-16.2-24.5-36-24.5-59.2c0-23,8.1-42.8,24.5-59.2c16.4-16.2,36.3-24.5,59.2-24.5
						c23.2,0,42.8,8.3,59.2,24.5c16.4,16.4,23.2,36.3,23.2,59.2v2v9.5h-79.9V128.8z"/>
				</g>
				<g id="g90" transform="translate(338.6099,323.4395)">
					<path id="path92" class="st3" d="M-186.9,128.8l-22.5-12.3l-53.7,98l22.5,12.3L-186.9,128.8z"/>
				</g>
				<g id="g94" transform="translate(268.52,433.8682)">
					<path id="path96" class="st3" d="M-186.9,128.8l7.3,4l6.6-12.1l-7.3-4L-186.9,128.8z"/>
				</g>
			</g>
		</g>
	</g>
</g>
</svg>
